# xmcd
#
# Track frame offsets:
#	150
#	6882
#	27722
#	44602
#	62740
#	65962
#	82937
#	105240
#	125707
#	150515
#	174622
#	197172
#	217800
#	220725
#	235677
#	241220
#
# Disc length: 3630 seconds
#
# Revision: 0
# Processed by: cddbd v1.4PL0 Copyright (c) Steve Scherf et al.
# Submitted via: audiograbber 1.82.01
#
DISCID=dc0e2c10
DTITLE=Pam Rose - Morpheus
DYEAR=1900
DGENRE=Country
TTITLE0=Into The Dream
TTITLE1=My Beloved
TTITLE2=Walls
TTITLE3=I Knew You When
TTITLE4=Into The World
TTITLE5=Guns Of Love
TTITLE6=Please Don't Make Me Say Goodnight
TTITLE7=Into The Glade/I'll Get Over You
TTITLE8=Old Ones
TTITLE9=Louise, Louise
TTITLE10=Into The Heart/That Ain't No Way To Treat A Lover (Duet with John Berr
TTITLE10=y)
TTITLE11=You Have No Idea
TTITLE12=Into The Wood
TTITLE13=Always
TTITLE14=Into The Moon
TTITLE15=Bring Down The Moon
EXTD=
EXTT0=
EXTT1=
EXTT2=
EXTT3=
EXTT4=
EXTT5=
EXTT6=
EXTT7=
EXTT8=
EXTT9=
EXTT10=
EXTT11=
EXTT12=
EXTT13=
EXTT14=
EXTT15=
PLAYORDER=
